<svg xmlns="http://www.w3.org/2000/svg" version="1.1" xmlns:xlink="http://www.w3.org/1999/xlink" xmlns:svgjs="http://svgjs.dev/svgjs" viewBox="0 0 1422 800"><defs><linearGradient x1="50%" y1="0%" x2="50%" y2="100%" id="ccchaos-grad"><stop stop-color="hsl(206, 75%, 49%)" stop-opacity="1" offset="0%"></stop><stop stop-color="hsl(331, 90%, 56%)" stop-opacity="1" offset="100%"></stop></linearGradient></defs><g stroke-width="2" stroke="url(#ccchaos-grad)" fill="none" stroke-linecap="round"><path d="M688.58 70.9Q696.96 78.58 705.62 86.18 714.57 93.6 723.82 100.76 733.39 107.56 743.28 113.92 753.48 119.78 763.98 125.1 774.79 129.86 785.87 134.06 797.23 137.73 808.82 140.9 820.62 143.65 832.61 146.06 844.74 148.24 856.98 150.3 869.29 152.36 881.63 154.55 893.95 156.99 906.2 159.8 918.35 163.08 930.35 166.92 942.15 171.38 953.71 176.51 964.98 182.32 975.94 188.8 986.55 195.92 996.77 203.6 1006.58 211.76 1015.95 220.3 1024.88 229.07 1033.34 237.94 1030.15 248.33 1025.37 258.71 1019.22 269.09 1012.01 279.48 1004.08 289.86 995.8 300.24 987.59 310.63 979.82 321.01 972.88 331.39 967.1 341.78 962.75 352.16 960.05 362.54 959.12 372.93 960.01 383.31 962.68 393.7 966.99 404.08 972.75 414.46 979.67 424.85 987.42 435.23 995.63 445.61 1003.91 456 1011.85 466.38 1019.09 476.77 1025.26 487.15 1030.07 497.53 1033.29 507.92 1034.78 518.3 1034.44 528.68 1032.31 539.07 1028.48 549.45 1023.14 559.84 1016.55 570.22 1003.74 569.2 990.84 568.15 977.89 567.31 964.96 566.92 952.08 567.21 939.31 568.38 926.7 570.61 914.28 574 902.1 578.67 890.19 584.63 878.57 591.86 867.28 600.32 856.34 609.87 845.75 620.35 835.54 631.57 825.71 643.29 816.25 655.26 807.17 667.21 798.45 678.87 790.08 689.98 782.03 700.3 774.3 709.62 766.85 717.75 759.65 724.57 745.97 733.32 732.75 737.96 719.94 736.93 707.17 733.67 695.96 721.12 684.92 708.8 674.08 696.99 663.45 685.94 653.06 675.89 642.9 667 632.98 659.42 623.32 653.22 613.9 648.43 604.72 645.02 587.17 642.46 570.24 642.82 554.18 645.76 538.5 648.7 523.24 649.13 508.08 646.76 500.5 643.57 492.88 639.11 485.21 633.36 477.46 626.36 469.62 618.2 461.68 609 453.62 598.94 445.44 588.22 437.12 577.07 428.68 565.73 429.92 555.4 430.92 545.07 431.64 534.74 432.04 524.42 432.11 514.09 431.83 503.76 431.22 493.43 430.31 483.1 429.15 472.78 427.79 462.45 426.3 452.12 424.74 441.79 423.19 431.46 421.73 421.14 420.43 410.81 419.35 400.48 418.54 390.15 418.04 379.82 417.87 369.5 418.04 359.17 418.55 348.84 419.37 338.51 420.46 328.18 421.76 317.86 423.22 307.53 424.77 297.2 426.33 286.87 427.82 276.55 429.18 266.22 430.33 255.89 436.33 239.65 450.94 232 460.37 229.91 469.69 227.34 478.88 224.2 487.94 220.42 496.84 215.97 505.59 210.83 514.17 205.02 522.57 198.57 530.8 191.55 538.85 184.04 546.74 176.16 554.46 168.01 562.03 159.73 569.46 151.43 576.77 143.24 583.97 135.28 591.1 127.65 598.16 120.44 605.2 113.72 612.22 107.55 626.43 97.17 640.87 88.43 656.03 81.88 671.77 76.16 684.31 72.22 688.58 70.9" stroke-dasharray="8 8" transform="rotate(0, 711, 400)" opacity="0.05"></path><path d="M688.87 83.65Q697.58 91.11 706.56 98.51 715.82 105.75 725.35 112.74 735.17 119.4 745.26 125.64 755.61 131.43 766.21 136.7 777.05 141.44 788.1 145.65 799.34 149.33 810.75 152.52 822.29 155.28 833.93 157.67 845.64 159.79 857.38 161.74 869.11 163.61 880.8 165.54 892.41 167.62 903.89 169.98 915.22 172.71 926.34 175.9 937.23 179.64 947.85 183.98 958.17 188.95 968.16 194.57 977.79 200.83 987.05 207.69 995.92 215.1 1004.37 222.97 1012.42 231.2 1020.04 239.69 1016.1 249.59 1010.82 259.48 1004.44 269.37 997.24 279.27 989.54 289.16 981.68 299.05 974.02 308.95 966.88 318.84 960.6 328.73 955.44 338.63 951.64 348.52 949.37 358.41 948.72 368.31 949.73 378.2 952.35 388.1 956.46 397.99 961.89 407.88 968.38 417.78 975.66 427.67 983.4 437.56 991.25 447.46 998.87 457.35 1005.91 467.24 1012.08 477.14 1017.08 487.03 1020.7 496.93 1022.78 506.82 1023.23 516.71 1022.03 526.61 1019.22 536.5 1014.94 546.4 1009.37 556.29 997.33 555.39 985.16 554.72 972.89 554.5 960.57 554.92 948.25 556.16 935.96 558.35 923.75 561.62 911.67 566.04 899.74 571.63 888 578.4 876.49 586.29 865.24 595.2 854.26 605 843.57 615.53 833.2 626.58 823.16 637.94 813.45 649.38 804.08 660.67 795.04 671.55 786.34 681.83 777.96 691.29 769.89 699.76 762.11 707.1 754.61 713.22 740.43 720.96 726.86 725 714 723.95 701.39 720.93 690.94 708.95 680.71 697.17 670.7 685.84 660.92 675.18 651.38 665.39 642.08 656.65 633.02 649.07 624.2 642.74 615.6 637.7 607.23 633.93 591.16 630.44 575.61 629.85 560.73 632.21 546.13 635.02 531.75 636.29 517.38 635.4 502.81 629.53 488.02 620.19 480.46 613.5 472.79 605.75 464.99 597.05 457.07 587.55 449.02 577.41 440.83 566.85 441.99 556.82 442.87 546.8 443.45 536.78 443.7 526.76 443.61 516.74 443.18 506.72 442.43 496.7 441.39 486.68 440.12 476.66 438.66 466.64 437.08 456.62 435.46 446.6 433.86 436.58 432.35 426.55 431 416.53 429.88 406.51 429.03 396.49 428.49 386.47 428.28 376.45 428.41 366.43 428.88 356.41 429.67 346.39 430.74 336.37 432.04 326.35 433.52 316.33 435.1 306.31 436.73 296.29 438.32 286.27 439.81 276.25 441.13 266.23 447.3 250.38 461.64 242.53 470.83 240.06 479.94 237.04 488.93 233.41 497.81 229.15 506.55 224.22 515.15 218.65 523.58 212.48 531.86 205.76 539.97 198.56 547.9 190.97 555.67 183.11 563.27 175.08 570.7 167 577.99 158.99 585.12 151.14 592.13 143.57 599.03 136.36 605.83 129.59 619.22 117.84 632.53 107.69 645.97 100.07 659.64 93.68 681.43 86.1 688.87 83.65" stroke-dasharray="8 5" transform="rotate(4.04, 711, 400)" opacity="0.09"></path><path d="M690.77 96.39Q699.75 103.65 708.97 110.84 718.43 117.88 728.14 124.69 738.08 131.2 748.23 137.33 758.59 143.02 769.14 148.25 779.85 152.97 790.71 157.18 801.68 160.88 812.74 164.1 823.87 166.89 835.02 169.29 846.18 171.39 857.3 173.26 868.35 175 879.3 176.72 890.11 178.52 900.76 180.49 911.2 182.74 921.42 185.37 931.38 188.44 941.06 192.04 950.43 196.2 959.48 200.97 968.18 206.35 976.52 212.33 984.5 218.89 992.1 225.97 1000.49 242.17 996.02 260.24 989.54 269.66 982.46 279.07 975.08 288.48 967.69 297.89 960.6 307.31 954.1 316.72 948.46 326.13 943.9 335.55 940.62 344.96 938.74 354.37 938.35 363.78 939.46 373.2 942.02 382.61 945.93 392.02 951.04 401.43 957.12 410.85 963.94 420.26 971.21 429.67 978.63 439.09 985.91 448.5 992.73 457.91 998.84 467.32 1003.96 476.74 1007.9 486.15 1010.49 495.56 1011.63 504.97 1011.27 514.39 1009.43 523.8 1006.17 533.21 1001.64 542.62 990.41 542.16 979.01 542.13 967.47 542.73 955.83 544.08 944.13 546.32 932.41 549.55 920.71 553.81 909.06 559.15 897.5 565.56 886.07 572.99 874.78 581.36 863.68 590.56 852.79 600.45 842.13 610.87 831.72 621.62 821.59 632.52 811.73 643.35 802.16 653.91 792.89 663.99 783.92 673.43 775.25 682.04 766.88 689.69 758.79 696.28 750.98 701.73 736.24 708.55 722.18 712.03 709.04 710.99 696.31 708.18 686.73 696.77 677.38 685.53 668.26 674.68 659.37 664.42 650.71 654.92 642.28 646.35 634.07 638.82 626.06 632.4 610.73 623.63 595.9 618.22 581.73 617.49 567.85 618.69 554.23 621.23 540.64 623.36 526.92 622.94 513.02 620.07 498.67 612.22 483.99 601.21 476.44 593.94 468.76 585.8 460.96 576.89 453.03 567.37 454.06 557.67 454.79 547.97 455.21 538.27 455.29 528.57 455.04 518.87 454.45 509.17 453.56 499.47 452.39 489.77 451.01 480.07 449.47 470.37 447.82 460.67 446.14 450.97 444.49 441.27 442.95 431.57 441.57 421.87 440.41 412.17 439.53 402.46 438.95 392.76 438.69 383.06 438.78 373.36 439.21 363.66 439.95 353.96 440.98 344.26 442.26 334.56 443.73 324.86 445.34 315.16 447.01 305.46 448.69 295.76 450.29 286.06 451.76 276.36 458.07 260.82 472.13 252.57 481.08 249.62 489.97 246.09 498.76 241.95 507.45 237.19 516.02 231.82 524.47 225.87 532.77 219.41 540.92 212.48 548.92 205.18 556.75 197.6 564.42 189.84 571.93 181.99 579.26 174.18 586.44 166.5 593.46 159.04 600.34 151.89 607.08 145.12 613.69 138.8 626.59 127.9 639.28 118.54 651.84 111.53 664.46 105.65 684.1 98.66 690.77 96.39" stroke-dasharray="2 4" transform="rotate(8.08, 711, 400)" opacity="0.13"></path><path d="M694.14 109.15Q703.28 116.18 712.63 123.16 722.18 130 731.91 136.63 741.83 142.97 751.9 148.98 762.11 154.58 772.44 159.74 782.87 164.44 793.38 168.65 803.94 172.38 814.52 175.64 825.1 178.47 835.64 180.9 846.13 183.01 856.53 184.85 866.81 186.52 876.95 188.09 886.92 189.66 896.69 191.32 906.23 193.18 915.53 195.31 924.57 197.79 933.32 200.71 941.77 204.12 949.91 208.07 957.73 212.58 965.21 217.66 972.36 223.32 979.18 229.53 986.27 244.3 981.05 261.3 974.58 270.24 967.72 279.19 960.72 288.13 953.84 297.08 947.35 306.02 941.48 314.97 936.46 323.91 932.47 332.86 929.67 341.8 928.16 350.75 927.99 359.69 929.19 368.64 931.69 377.58 935.4 386.52 940.19 395.47 945.88 404.41 952.25 413.36 959.06 422.3 966.05 431.25 972.97 440.19 979.55 449.14 985.54 458.08 990.73 467.03 994.91 475.97 997.92 484.91 999.67 493.86 1000.06 502.8 999.11 511.75 989.87 525.27 972.31 530.66 961.54 532.19 950.63 534.54 939.62 537.78 928.54 541.98 917.43 547.15 906.31 553.29 895.22 560.35 884.19 568.26 873.25 576.94 862.43 586.27 851.75 596.09 841.24 606.26 830.92 616.6 820.81 626.94 810.92 637.09 801.27 646.89 791.87 656.16 782.73 664.75 773.85 672.54 765.24 679.41 756.89 685.28 748.8 690.1 733.5 696.06 718.91 699.04 705.34 698.01 692.29 695.43 683.63 684.57 675.2 673.86 666.98 663.49 658.99 653.64 651.2 644.46 643.61 636.08 636.21 628.62 628.98 622.16 615.06 612.91 601.53 606.76 588.46 605.11 575.55 605.47 562.73 607.64 549.85 609.83 536.71 610.4 523.33 609.08 509.46 603.6 495.24 595.27 487.92 589.44 480.47 582.71 472.9 575.16 465.21 566.89 466.08 557.53 466.64 548.17 466.88 538.8 466.78 529.44 466.35 520.08 465.61 510.71 464.58 501.35 463.3 491.99 461.82 482.63 460.2 473.26 458.49 463.9 456.77 454.54 455.09 445.17 453.52 435.81 452.12 426.45 450.94 417.08 450.02 407.72 449.4 398.36 449.11 388.99 449.15 379.63 449.52 370.27 450.21 360.91 451.19 351.54 452.43 342.18 453.88 332.82 455.48 323.45 457.18 314.09 458.9 304.73 460.6 295.36 462.19 286 468.62 270.75 482.37 261.92 491.08 258.44 499.73 254.38 508.31 249.73 516.81 244.52 525.21 238.76 533.49 232.51 541.66 225.83 549.69 218.79 557.58 211.48 565.32 203.98 572.9 196.39 580.33 188.8 587.59 181.31 594.69 174.01 601.64 166.97 608.43 160.27 621.51 148.34 634.2 137.81 646.38 129.69 658.35 122.88 670.17 117.77 682.04 113.29 691.09 110.19 694.14 109.15" stroke-dasharray="5 11" transform="rotate(12.12, 711, 400)" opacity="0.16"></path><path d="M698.73 121.89Q717.24 135.45 736.34 148.52 755.89 160.57 775.77 171.17 795.79 180.05 815.78 187.11 835.55 192.47 854.89 196.46 873.63 199.58 891.6 202.42 908.64 205.68 924.64 209.98 939.51 215.89 953.2 223.77 965.7 233.81 977.08 245.92 965.96 262.91 953.07 279.89 940.17 296.88 929.03 313.87 921.15 330.86 917.62 347.85 918.92 364.84 924.87 381.83 934.66 398.82 946.95 415.8 960.07 432.79 972.22 449.78 981.75 466.77 987.35 483.76 988.26 500.75 984.36 517.73 964.99 520.54 944.87 526.39 924.22 535.66 903.25 548.37 882.2 564.14 861.28 582.23 840.69 601.63 820.61 621.16 801.21 639.59 782.59 655.81 764.85 668.92 748.03 678.36 732.14 683.98 717.15 686.06 703.01 685.29 689.63 682.69 674.37 662.2 659.9 642.87 646.13 625.86 632.95 612.04 620.26 601.93 607.92 595.59 595.78 592.7 583.72 592.54 571.59 594.1 559.29 596.2 546.7 597.62 533.74 597.26 520.35 594.22 506.5 587.91 492.17 578.15 477.37 565.1 478.41 547.09 478.17 529.08 476.67 511.06 474.12 493.05 470.88 475.03 467.37 457.02 464.08 439.01 461.47 420.99 459.88 402.98 459.53 384.96 460.47 366.95 462.58 348.93 465.56 330.92 469.01 312.9 472.45 294.89 475.42 276.87 492.38 270.43 509.23 261.82 525.87 251.11 542.19 238.58 558.1 224.72 573.51 210.14 588.37 195.53 602.62 181.53 616.25 168.72 629.28 157.49 641.73 148.06 653.69 140.45 665.24 134.45 676.5 129.7 693.17 123.79 698.73 121.89" stroke-dasharray="8 1" transform="rotate(16.16, 711, 400)" opacity="0.20"></path><path d="M704.21 134.63Q722.44 147.73 741.03 160.39 759.87 172.12 778.79 182.53 797.65 191.36 816.29 198.49 834.53 203.97 852.24 208.06 869.26 211.15 885.47 213.74 900.76 216.44 915.06 219.83 928.32 224.45 940.55 230.74 951.75 238.97 962 249.2 950.82 265.33 938.54 281.45 926.68 297.58 916.74 313.71 909.94 329.83 907.13 345.96 908.66 362.08 914.34 378.21 923.46 394.34 934.89 410.46 947.21 426.59 958.87 442.71 968.44 458.84 974.71 474.96 976.91 491.09 974.76 507.22 957.02 511.94 938.48 519.65 919.33 530.5 899.74 544.27 879.91 560.47 860.02 578.33 840.25 596.9 820.77 615.13 801.75 632 783.3 646.6 765.54 658.23 748.53 666.49 732.32 671.34 716.94 673.07 702.35 672.31 688.52 669.94 675.01 650.52 662.14 632.1 649.82 615.67 637.93 602.03 626.35 591.67 614.96 584.72 603.63 580.99 592.24 579.94 580.69 580.79 568.87 582.57 556.72 584.23 544.16 584.77 531.16 583.3 517.7 579.17 503.79 572 489.45 561.75 490.07 544.48 489.43 527.22 487.62 509.96 484.86 492.7 481.49 475.44 477.93 458.17 474.63 440.91 472 423.65 470.36 406.39 469.92 389.13 470.73 371.86 472.69 354.6 475.56 337.34 478.99 320.08 482.53 302.81 485.76 285.55 502.12 277.97 518.42 268.39 534.59 256.98 550.51 244.12 566.1 230.32 581.27 216.15 595.96 202.23 610.1 189.12 623.66 177.26 636.63 166.97 649.01 158.4 660.85 151.5 672.19 146.08 683.13 141.76 698.99 136.38 704.21 134.63" stroke-dasharray="6 1" transform="rotate(20.200000000000003, 711, 400)" opacity="0.24"></path><path d="M710.18 147.38Q727.82 160 745.62 172.22 763.45 183.62 781.19 193.83 798.69 202.59 815.82 209.77 832.46 215.4 848.48 219.62 863.79 222.76 878.28 225.23 891.91 227.53 904.64 230.2 916.44 233.74 927.35 238.6 937.41 245.11 946.7 253.46 935.69 268.77 924.16 284.07 913.4 299.37 904.62 314.68 898.83 329.98 896.68 345.28 898.4 360.59 903.81 375.89 912.29 391.19 922.88 406.49 934.4 421.8 945.52 437.1 955.01 452.4 961.78 467.7 965.07 483.01 964.51 498.31 948.36 504.9 931.41 514.29 913.8 526.38 895.66 540.85 877.17 557.12 858.46 574.45 839.71 591.97 821.06 608.8 802.65 624.08 784.62 637.1 767.08 647.33 750.12 654.51 733.8 658.67 718.17 660.09 703.26 659.34 689.05 657.2 677.12 638.83 665.68 621.31 654.61 605.51 643.8 592.12 633.15 581.59 622.54 574.13 611.86 569.62 601.02 567.7 589.93 567.77 578.52 569.06 566.74 570.68 554.53 571.75 541.89 571.47 528.81 569.13 515.31 564.27 501.41 556.66 501.58 540.19 500.56 523.72 498.45 507.25 495.5 490.78 492.04 474.31 488.46 457.84 485.17 441.37 482.53 424.9 480.85 408.43 480.31 391.96 480.98 375.49 482.78 359.02 485.51 342.55 488.86 326.08 492.45 309.61 495.87 293.14 511.59 284.49 527.31 274.08 542.95 262.18 558.43 249.22 573.65 235.67 588.54 222.08 603.03 208.97 617.04 196.79 630.53 185.92 643.47 176.58 655.84 168.84 667.66 162.64 678.94 157.75 689.74 153.86 705.15 148.96 710.18 147.38" stroke-dasharray="7 9" transform="rotate(24.24, 711, 400)" opacity="0.28"></path><path d="M716.22 160.12Q732.98 172.25 749.72 184.03 766.33 195.07 782.69 205.05 798.69 213.72 814.24 220.95 829.23 226.71 843.57 231.1 857.21 234.36 870.09 236.82 882.17 238.89 893.46 241.03 903.96 243.7 913.71 247.34 922.78 252.3 931.24 258.86 920.64 273.37 909.97 287.89 900.32 302.41 892.68 316.93 887.83 331.45 886.26 345.96 888.14 360.48 893.28 375 901.14 389.52 910.92 404.04 921.63 418.55 932.18 433.07 941.48 447.59 948.58 462.1 952.77 476.62 953.61 491.14 939 499.44 923.61 510.19 907.54 523.16 890.91 537.94 873.83 553.94 856.44 570.47 838.85 586.78 821.21 602.12 803.65 615.82 786.28 627.31 769.21 636.24 752.53 642.43 736.34 645.95 720.69 647.1 705.62 646.38 691.16 644.45 680.61 627.13 670.37 610.52 660.33 595.37 650.41 582.29 640.49 571.7 630.5 563.82 620.33 558.62 609.92 555.87 599.2 555.12 588.13 555.77 576.66 557.11 564.78 558.4 552.48 558.9 539.76 557.95 526.66 555.04 513.21 549.8 512.93 534.16 511.53 518.52 509.16 502.88 506.05 487.24 502.53 471.6 498.95 455.96 495.69 440.32 493.06 424.67 491.35 409.03 490.72 393.39 491.24 377.75 492.86 362.11 495.41 346.47 498.64 330.82 502.2 315.18 505.74 299.54 520.79 289.97 535.89 278.94 550.96 266.79 565.94 253.94 580.74 240.85 595.29 227.98 609.51 215.77 623.35 204.6 636.74 194.73 649.64 186.32 662.02 179.39 673.87 173.85 685.18 169.48 695.99 165.99 711.26 161.56 716.22 160.12" stroke-dasharray="11 9" transform="rotate(28.28, 711, 400)" opacity="0.32"></path><path d="M721.87 172.86Q737.51 184.49 752.98 195.8 768.19 206.47 783.06 216.19 797.49 224.75 811.42 231.99 824.78 237.88 837.5 242.46 849.57 245.9 860.95 248.44 871.63 250.43 881.64 252.23 890.99 254.25 899.75 256.9 907.97 260.54 915.74 265.46 905.72 279.23 895.99 292.99 887.46 306.76 880.91 320.53 876.93 334.29 875.89 348.06 877.89 361.83 882.74 375.59 890 389.36 899 403.13 908.92 416.89 918.85 430.66 927.87 444.43 935.16 458.19 940.05 471.96 942.09 485.73 928.94 495.45 915.06 507.19 900.52 520.65 885.4 535.36 869.78 550.78 853.78 566.29 837.49 581.26 821.02 595.07 804.48 607.2 787.98 617.25 771.61 624.96 755.48 630.24 739.66 633.2 724.22 634.12 709.23 633.43 694.72 631.71 685.29 615.42 676.01 599.73 666.78 585.26 657.54 572.55 648.18 561.99 638.65 553.79 628.87 548 618.79 544.46 608.38 542.89 597.58 542.81 586.4 543.69 574.82 544.9 562.85 545.82 550.51 545.84 537.82 544.45 524.83 541.23 524.09 526.45 522.35 511.67 519.74 496.88 516.51 482.1 512.96 467.32 509.41 452.54 506.19 437.75 503.59 422.97 501.86 408.19 501.14 393.41 501.51 378.63 502.94 363.85 505.28 349.06 508.33 334.28 511.81 319.5 515.4 304.72 529.73 294.44 544.16 283.05 558.61 270.91 573.03 258.4 587.34 245.94 601.48 233.92 615.38 222.7 628.97 212.56 642.21 203.69 655.03 196.19 667.4 190.04 679.28 185.14 690.67 181.26 701.55 178.14 716.91 174.16 721.87 172.86" stroke-dasharray="1 5" transform="rotate(32.32, 711, 400)" opacity="0.35"></path><path d="M726.74 185.62Q741.06 196.72 755.12 207.55 768.83 217.82 782.15 227.26 795 235.68 807.33 242.91 819.12 248.91 830.33 253.68 840.94 257.32 850.96 260.03 860.4 262.06 869.28 263.7 885.36 267.54 900.26 273.3 890.98 286.34 882.26 299.38 874.84 312.42 869.31 325.47 866.12 338.51 865.55 351.55 867.64 364.6 872.21 377.64 878.89 390.68 887.14 403.73 896.27 416.77 905.55 429.81 914.21 442.86 921.54 455.9 926.94 468.94 929.97 481.99 918.2 492.76 905.76 505.09 892.7 518.63 879.07 532.93 864.93 547.5 850.37 561.8 835.45 575.32 820.27 587.6 804.91 598.22 789.46 606.91 774.01 613.49 758.64 617.96 743.44 620.41 728.47 621.13 713.79 620.48 699.46 618.96 690.89 603.68 682.34 588.91 673.71 575.16 664.96 562.88 656.01 552.43 646.81 544.02 637.32 537.73 627.5 533.5 617.33 531.12 606.79 530.28 595.87 530.55 584.59 531.44 572.96 532.44 561 533.03 548.74 532.72 536.21 531.1 535.05 517.2 532.99 503.3 530.19 489.41 526.87 475.51 523.33 461.61 519.83 447.71 516.68 433.81 514.12 419.91 512.38 406.01 511.58 392.11 511.8 378.21 513.01 364.31 515.13 350.42 517.97 336.52 521.3 322.62 524.85 308.72 538.44 298.01 552.15 286.54 565.93 274.66 579.72 262.71 593.47 251.05 607.12 239.99 620.61 229.82 633.89 220.73 646.88 212.85 659.55 206.23 671.85 200.83 683.74 196.51 695.18 193.1 706.17 190.34 721.71 186.78 726.74 185.62" stroke-dasharray="11 11" transform="rotate(36.36, 711, 400)" opacity="0.39"></path><path d="M730.46 198.36Q743.35 208.93 755.91 219.26 768.09 229.11 779.86 238.24 791.17 246.48 801.99 253.67 812.32 259.75 822.14 264.7 831.45 268.58 840.27 271.51 856.34 275.19 871.26 278.13 877.33 287.27 868.8 306.98 862.44 319.32 857.87 331.66 855.41 344 855.25 356.34 857.39 368.68 861.68 381.02 867.81 393.36 875.32 405.7 883.69 418.04 892.3 430.38 900.52 442.72 907.76 455.06 913.49 467.4 917.3 479.74 906.81 491.15 895.73 503.64 884.08 516.88 871.89 530.46 859.21 543.95 846.09 556.91 832.59 568.95 818.77 579.7 804.7 588.89 790.44 596.3 776.08 601.87 761.68 605.59 747.32 607.61 733.05 608.16 718.93 607.56 705.03 606.21 697.09 591.95 689.04 578.09 680.83 565.08 672.41 553.29 663.73 543.03 654.77 534.52 645.5 527.85 635.89 523 625.94 519.88 615.64 518.25 605 517.82 594.03 518.21 582.75 519.02 571.19 519.8 559.38 520.15 547.35 519.67 545.8 506.67 543.46 493.67 540.5 480.67 537.15 467.67 533.64 454.66 530.22 441.66 527.16 428.66 524.66 415.66 522.91 402.66 522.03 389.66 522.1 376.66 523.1 363.66 524.97 350.66 527.56 337.66 530.69 324.66 534.13 311.66 546.94 300.82 559.88 289.56 572.93 278.18 586.03 266.99 599.15 256.26 612.24 246.25 625.23 237.15 638.09 229.1 650.75 222.19 663.18 216.42 675.31 211.72 687.12 207.97 698.57 204.99 709.62 202.56 725.35 199.4 730.46 198.36" stroke-dasharray="8 9" transform="rotate(40.400000000000006, 711, 400)" opacity="0.43"></path><path d="M732.76 211.11Q744.17 221.13 755.23 230.94 765.91 240.35 776.19 249.14 786.05 257.16 795.48 264.28 804.48 270.41 813.06 275.51 828.83 282.41 843.53 286.97 859.57 296.76 855.62 315.62 850.29 327.27 846.6 338.92 844.79 350.57 844.98 362.22 847.14 373.87 851.15 385.52 856.74 397.17 863.56 408.82 871.18 420.47 879.1 432.12 886.83 443.77 893.86 455.42 899.75 467.07 904.13 478.72 894.82 490.32 885 502.57 874.67 515.17 863.86 527.77 852.59 540 840.89 551.54 828.81 562.08 816.38 571.35 803.66 579.18 790.7 585.43 777.56 590.07 764.29 593.14 750.94 594.78 737.59 595.19 724.27 594.64 711.04 593.47 703.5 580.2 695.77 567.25 687.82 555 679.62 543.75 671.14 533.77 662.35 525.25 653.26 518.31 643.84 512.97 634.1 509.17 624.05 506.79 613.7 505.61 603.06 505.37 592.17 505.76 581.04 506.43 569.71 507.04 558.21 507.25 556.31 495.15 553.75 483.06 550.69 470.96 547.33 458.87 543.89 446.77 540.58 434.67 537.62 422.58 535.19 410.48 533.45 398.39 532.51 386.29 532.43 374.2 533.21 362.1 534.81 350.01 537.13 337.91 540.01 325.82 543.27 313.72 555.25 303.07 567.39 292.29 579.65 281.64 592.01 271.37 604.43 261.68 616.86 252.76 629.27 244.75 641.61 237.74 653.83 231.76 665.9 226.78 677.76 222.74 689.39 219.51 700.73 216.93 711.76 214.82 727.6 212.03 732.76 211.11" stroke-dasharray="11 4" transform="rotate(44.44, 711, 400)" opacity="0.47"></path><path d="M733.49 223.85Q743.43 233.31 753.04 242.59 762.3 251.53 771.2 259.96 779.74 267.72 787.93 274.72 795.76 280.85 803.26 286.08 817.22 293.47 830.43 298.52 845.55 307.61 842.74 325.11 838.38 336.07 835.5 347.04 834.26 358 834.73 368.96 836.89 379.92 840.62 390.89 845.69 401.85 851.85 412.81 858.73 423.77 865.97 434.74 873.15 445.7 879.87 456.66 885.77 467.63 890.51 478.59 882.28 489.95 873.61 501.6 864.52 513.27 855 524.67 845.06 535.54 834.73 545.61 824.03 554.68 813 562.55 801.65 569.12 790.03 574.31 778.19 578.12 766.16 580.62 753.98 581.93 741.71 582.22 729.38 581.73 717.05 580.73 709.74 568.43 702.2 556.4 694.41 544.92 686.35 534.26 678 524.64 669.37 516.22 660.44 509.12 651.22 503.39 641.72 499.03 631.95 495.95 621.92 494.03 611.66 493.09 601.19 492.9 590.53 493.21 573.15 488.39 563.86 471.84 560.75 460.64 557.43 449.45 554.09 438.26 550.91 427.07 548.07 415.87 545.72 404.68 544 393.49 543 382.29 542.78 371.1 543.35 359.91 544.68 348.72 546.7 337.53 549.29 326.33 552.3 315.14 563.43 304.98 574.73 294.93 586.16 285.2 597.72 275.97 609.36 267.39 621.06 259.59 632.79 252.66 644.51 246.65 656.18 241.55 667.77 237.32 679.23 233.89 690.54 231.14 701.65 228.93 712.53 227.1 728.33 224.66 733.49 223.85" stroke-dasharray="1 5" transform="rotate(48.48, 711, 400)" opacity="0.51"></path><path d="M732.59 236.59Q741.15 245.47 749.41 254.21 757.37 262.65 765.04 270.68 772.42 278.15 779.52 284.98 792.83 295.98 805.48 304.59 817.31 309.56 828.86 312.82 834.67 319.34 830.17 335.17 826.7 345.44 824.55 355.71 823.81 365.98 824.52 376.25 826.64 386.52 830.08 396.79 834.67 407.06 840.19 417.33 846.37 427.6 852.91 437.88 859.51 448.15 865.84 458.42 871.6 468.69 876.52 478.96 869.26 489.7 861.64 500.44 853.67 510.96 845.34 521.04 836.65 530.47 827.61 539.09 818.23 546.73 808.54 553.3 798.55 558.72 788.29 562.96 777.78 566.04 767.05 568.04 756.14 569.07 745.07 569.27 733.88 568.84 722.61 567.98 715.42 556.66 707.99 545.54 700.3 534.86 692.35 524.82 684.14 515.62 675.66 507.39 666.92 500.26 657.93 494.27 648.71 489.45 639.26 485.78 629.61 483.16 619.78 481.5 609.78 480.65 599.64 480.41 583 475.65 573.8 460.39 570.69 450.09 567.45 439.79 564.24 429.5 561.21 419.2 558.5 408.9 556.25 398.6 554.56 388.3 553.52 378 553.17 367.7 553.53 357.4 554.59 347.1 556.29 336.8 558.55 326.51 561.27 316.21 571.52 306.8 581.94 297.69 592.51 289.02 603.21 280.91 614.02 273.48 624.92 266.8 635.88 260.92 646.88 255.84 657.89 251.57 668.88 248.03 679.81 245.16 690.66 242.85 701.39 240.98 711.97 239.42 727.49 237.3 732.59 236.59" stroke-dasharray="1 1" transform="rotate(52.52, 711, 400)" opacity="0.54"></path><path d="M730.12 249.34Q737.42 257.62 744.48 265.79 751.31 273.72 757.91 281.31 770.38 294.75 782.3 306.38 793.51 314.62 804.46 320.82 818.42 330.04 817.91 345.48 815.27 355.05 813.75 364.62 813.43 374.19 814.33 383.75 816.4 393.32 819.55 402.89 823.67 412.46 828.58 422.03 834.08 431.6 839.94 441.16 845.93 450.73 851.8 460.3 857.3 469.87 862.23 479.44 855.83 489.24 849.16 498.83 842.2 508.04 834.95 516.71 827.4 524.71 819.56 531.91 811.42 538.23 803.01 543.59 794.32 547.98 785.37 551.38 776.19 553.83 766.78 555.41 757.16 556.2 747.37 556.33 737.42 555.95 727.33 555.24 720.21 544.87 712.86 534.65 705.27 524.78 697.44 515.41 689.39 506.7 681.11 498.76 672.61 491.7 663.91 485.58 655.03 480.44 645.97 476.27 636.75 473.05 627.39 470.71 617.92 469.16 608.35 468.28 592.57 463.24 583.57 449.13 580.51 439.71 577.39 430.29 574.34 420.87 571.48 411.45 568.93 402.02 566.78 392.6 565.14 383.18 564.06 373.76 563.6 364.34 563.76 354.92 564.55 345.5 565.93 336.07 567.84 326.65 570.21 317.23 579.58 308.8 589.09 300.78 598.76 293.25 608.57 286.32 618.49 280.03 628.53 274.43 638.65 269.55 648.84 265.36 659.09 261.83 669.35 258.93 679.62 256.57 689.87 254.65 700.07 253.09 710.19 251.76 725.17 249.95 730.12 249.34" stroke-dasharray="11 5" transform="rotate(56.56, 711, 400)" opacity="0.58"></path><path d="M726.25 262.09Q738.49 277.35 750.05 291.87 761.03 304.96 771.55 316.09 781.77 324.9 791.86 331.33 802.01 335.55 812.42 338.03 805.98 355.73 803.1 373.42 804.16 391.12 809.02 408.81 817.02 426.51 827.06 444.2 837.77 461.9 847.7 479.59 836.25 496.51 823.91 511.59 810.64 524.06 796.41 533.44 781.25 539.59 765.21 542.71 748.38 543.39 730.87 542.48 716.57 523.74 701.47 506.02 685.63 490.29 669.11 477.3 652.03 467.45 634.5 460.79 616.66 457.03 598.64 455.54 593.17 438.41 587.26 421.29 581.73 404.17 577.32 387.04 574.63 369.92 574.05 352.79 575.64 335.67 579.19 318.54 596.25 304.4 613.87 292.29 631.99 282.54 650.53 275.19 669.36 270.01 688.36 266.55 707.38 264.15 726.25 262.09 726.25 262.09 726.25 262.09" stroke-dasharray="2 10" transform="rotate(60.599999999999994, 711, 400)" opacity="0.62"></path><path d="M721.29 274.83Q731.75 288.86 741.78 302.32 751.46 314.67 760.93 325.45 770.29 334.37 779.69 341.26 789.26 346.18 799.17 349.35 794.37 365.57 792.59 381.78 794.01 398 798.49 414.21 805.51 430.43 814.28 446.64 823.81 462.86 833.02 479.07 823 493.3 812.34 505.61 800.96 515.55 788.83 522.89 775.94 527.62 762.3 529.99 747.96 530.48 732.97 529.74 718.98 512.82 704.36 496.66 689.18 481.99 673.52 469.41 657.46 459.3 641.12 451.8 624.6 446.84 608 444.06 602.63 428.61 597.06 413.16 591.94 397.71 587.85 382.25 585.23 366.8 584.4 351.34 585.44 335.89 588.24 320.43 603.48 308.71 619.22 298.9 635.45 291.14 652.1 285.35 669.1 281.27 686.37 278.51 703.8 276.56 721.29 274.83 721.29 274.83 721.29 274.83" stroke-dasharray="4 7" transform="rotate(64.64, 711, 400)" opacity="0.66"></path><path d="M715.57 287.58Q724.59 300.35 733.39 312.69 742.03 324.19 750.62 334.5 759.26 343.33 768.03 350.54 777.05 356.07 786.42 360 783.08 374.69 782.21 389.38 783.88 404.07 787.96 418.76 794.05 433.45 801.61 448.14 809.93 462.84 818.27 477.53 809.53 489.02 800.33 498.71 790.62 506.38 780.36 511.94 769.51 515.48 758.07 517.23 746.05 517.57 733.46 517 720 501.88 706.08 487.3 691.77 473.81 677.15 461.86 662.29 451.78 647.28 443.76 632.18 437.82 617.09 433.83 611.95 420 606.81 406.17 602.14 392.34 598.38 378.51 595.86 364.68 594.83 350.86 595.36 337.03 597.43 323.2 610.85 313.87 624.71 306.23 639 300.25 653.7 295.83 668.77 292.71 684.15 290.57 707.67 288.29 715.57 287.58" stroke-dasharray="11 8" transform="rotate(68.68, 711, 400)" opacity="0.70"></path><path d="M709.53 300.32Q717.4 311.8 725.2 322.97 732.99 333.52 740.84 343.2 748.81 351.78 756.98 359.1 765.42 365.07 774.18 369.7 772.09 382.83 771.95 395.95 773.77 409.07 777.43 422.2 782.64 435.32 789.05 448.45 796.18 461.57 803.51 474.7 795.91 483.56 788.02 490.88 779.78 496.57 771.15 500.64 762.11 503.2 752.63 504.45 742.71 504.69 732.33 504.25 719.64 490.92 706.67 477.95 693.46 465.74 680.07 454.63 666.57 444.87 653.01 436.64 639.44 430.04 625.93 425.04 621.15 412.79 616.5 400.54 612.32 388.3 608.91 376.05 606.52 363.81 605.34 351.56 605.43 339.32 606.79 327.07 618.42 320 630.43 314.3 642.79 309.88 655.52 306.63 668.59 304.32 681.97 302.7 702.58 300.9 709.53 300.32" stroke-dasharray="9 7" transform="rotate(72.72, 711, 400)" opacity="0.73"></path><path d="M703.59 313.07Q710.53 323.22 717.5 333.16 724.55 342.67 731.72 351.57 739.06 359.69 746.6 366.9 754.39 373.1 762.46 378.24 761.39 389.76 761.8 401.28 763.67 412.8 766.89 424.32 771.29 435.83 776.62 447.35 782.42 467.87 775.53 482.13 761.24 488.47 746.13 491.66 738.05 491.82 729.65 491.51 718.02 479.93 706.23 468.59 694.33 457.75 682.36 447.66 670.36 438.49 658.37 430.4 646.43 423.49 634.57 417.81 630.25 407.11 626.14 396.41 622.47 385.71 619.44 375.02 617.22 364.32 615.93 353.62 615.65 342.93 616.39 332.23 626.28 327.17 636.46 323.13 646.94 320.03 657.71 317.74 668.78 316.1 680.12 314.91 697.66 313.52 703.59 313.07" stroke-dasharray="10 7" transform="rotate(76.76, 711, 400)" opacity="0.77"></path><path d="M698.18 325.81Q704.34 334.61 710.58 343.27 716.93 351.65 723.42 359.63 730.08 367.09 736.92 373.93 747.48 387.7 751.77 405.22 753.59 415.11 756.36 424.99 759.99 434.87 764.31 444.76 763.04 468.5 751.21 477.09 738.7 478.62 725.62 478.77 715.3 468.91 704.94 459.22 694.55 449.83 684.15 440.91 673.78 432.58 663.45 424.96 653.19 418.14 643.03 412.17 639.27 403 635.75 393.82 632.61 384.65 629.97 375.47 627.95 366.3 626.63 357.12 630.26 341.67 642.9 332.72 651.55 330.68 660.42 329.16 669.53 328.04 678.86 327.2 693.3 326.16 698.18 325.81" stroke-dasharray="10 1" transform="rotate(80.80000000000001, 711, 400)" opacity="0.81"></path><path d="M693.71 338.56Q704.64 353.29 716.03 367.37 727.96 380.19 740.54 391.26 741.82 407.72 745.83 424.17 752.12 440.63 759.98 457.08 750.52 462.1 740.87 464.94 730.9 466.05 720.52 466.01 703 449.82 685.57 434.33 668.32 420.23 651.37 408.05 645.33 392.72 640.51 377.38 637.43 362.04 636.45 346.7 649.81 343.03 663.79 340.84 686.06 339.06 693.71 338.56" stroke-dasharray="7 3" transform="rotate(84.84, 711, 400)" opacity="0.85"></path><path d="M690.49 351.31Q699.86 363.24 709.59 374.82 719.73 385.73 730.3 395.68 731.96 408.8 735.3 421.92 739.16 443.02 730.55 452.6 722.72 453.25 714.73 453.27 700.68 440.39 686.79 427.88 673.09 416.07 659.63 405.29 654.9 392.96 651.04 380.63 652.8 361.14 667.92 352.77 684.74 351.65 690.49 351.31" stroke-dasharray="9 8" transform="rotate(88.88, 711, 400)" opacity="0.89"></path><path d="M688.76 364.05Q696.33 373.11 704.14 382.01 712.18 390.61 720.48 398.78 722.18 408.57 724.77 418.36 720.9 437.1 708.67 440.52 698.25 430.93 687.97 421.49 677.84 412.35 667.89 403.66 664.45 394.34 661.57 385.03 680.14 365.8 688.76 364.05" stroke-dasharray="6 5" transform="rotate(92.92, 711, 400)" opacity="0.92"></path><path d="M688.65 376.8Q699.63 388.95 711.06 400.74 700.9 417.88 676.19 402.84 682.04 380.29 688.65 376.8" stroke-dasharray="4 9" transform="rotate(96.96, 711, 400)" opacity="0.96"></path></g></svg>