<svg  id="animated-svg"  xmlns="http://www.w3.org/2000/svg" version="1.1" xmlns:xlink="http://www.w3.org/1999/xlink" xmlns:svgjs="http://svgjs.dev/svgjs" viewBox="0 0 800 800"><g fill="none" stroke-width="1" stroke="hsl(28, 31%, 84%)" stroke-linecap="square" stroke-dasharray="3 0.5"><line x1="434" y1="400" x2="366" y2="400" transform="rotate(0, 400, 400)" opacity="0.11"></line><line x1="246.5" y1="400" x2="553.5" y2="400" transform="rotate(3, 400, 400)" opacity="0.42"></line><line x1="624" y1="400" x2="176" y2="400" transform="rotate(6, 400, 400)" opacity="0.68"></line><line x1="493.5" y1="400" x2="306.5" y2="400" transform="rotate(9, 400, 400)" opacity="0.90"></line><line x1="163.5" y1="400" x2="636.5" y2="400" transform="rotate(12, 400, 400)" opacity="0.08"></line><line x1="377" y1="400" x2="423" y2="400" transform="rotate(15, 400, 400)" opacity="0.99"></line><line x1="300.5" y1="400" x2="499.5" y2="400" transform="rotate(18, 400, 400)" opacity="0.26"></line><line x1="652.5" y1="400" x2="147.5" y2="400" transform="rotate(21, 400, 400)" opacity="0.99"></line><line x1="696.5" y1="400" x2="103.5" y2="400" transform="rotate(24, 400, 400)" opacity="0.74"></line><line x1="378.5" y1="400" x2="421.5" y2="400" transform="rotate(27, 400, 400)" opacity="0.74"></line><line x1="373.5" y1="400" x2="426.5" y2="400" transform="rotate(30, 400, 400)" opacity="0.13"></line><line x1="556" y1="400" x2="244" y2="400" transform="rotate(33, 400, 400)" opacity="0.44"></line><line x1="674.5" y1="400" x2="125.5" y2="400" transform="rotate(36, 400, 400)" opacity="0.54"></line><line x1="264.5" y1="400" x2="535.5" y2="400" transform="rotate(39, 400, 400)" opacity="0.92"></line><line x1="618" y1="400" x2="182" y2="400" transform="rotate(42, 400, 400)" opacity="0.32"></line><line x1="566" y1="400" x2="234" y2="400" transform="rotate(45, 400, 400)" opacity="0.16"></line><line x1="519.5" y1="400" x2="280.5" y2="400" transform="rotate(48, 400, 400)" opacity="0.54"></line><line x1="681" y1="400" x2="119" y2="400" transform="rotate(51, 400, 400)" opacity="0.20"></line><line x1="228.5" y1="400" x2="571.5" y2="400" transform="rotate(54, 400, 400)" opacity="0.91"></line><line x1="460" y1="400" x2="340" y2="400" transform="rotate(57, 400, 400)" opacity="0.40"></line><line x1="188" y1="400" x2="612" y2="400" transform="rotate(60, 400, 400)" opacity="0.72"></line><line x1="388" y1="400" x2="412" y2="400" transform="rotate(63, 400, 400)" opacity="0.20"></line><line x1="319.5" y1="400" x2="480.5" y2="400" transform="rotate(66, 400, 400)" opacity="0.58"></line><line x1="650.5" y1="400" x2="149.5" y2="400" transform="rotate(69, 400, 400)" opacity="0.34"></line><line x1="230.5" y1="400" x2="569.5" y2="400" transform="rotate(72, 400, 400)" opacity="0.51"></line><line x1="216" y1="400" x2="584" y2="400" transform="rotate(75, 400, 400)" opacity="0.10"></line><line x1="353" y1="400" x2="447" y2="400" transform="rotate(78, 400, 400)" opacity="0.60"></line><line x1="531.5" y1="400" x2="268.5" y2="400" transform="rotate(81, 400, 400)" opacity="0.87"></line><line x1="688.5" y1="400" x2="111.5" y2="400" transform="rotate(84, 400, 400)" opacity="0.60"></line><line x1="197" y1="400" x2="603" y2="400" transform="rotate(87, 400, 400)" opacity="0.88"></line><line x1="728.5" y1="400" x2="71.5" y2="400" transform="rotate(90, 400, 400)" opacity="0.88"></line><line x1="245.5" y1="400" x2="554.5" y2="400" transform="rotate(93, 400, 400)" opacity="0.59"></line><line x1="655.5" y1="400" x2="144.5" y2="400" transform="rotate(96, 400, 400)" opacity="0.80"></line><line x1="307" y1="400" x2="493" y2="400" transform="rotate(99, 400, 400)" opacity="0.59"></line><line x1="201" y1="400" x2="599" y2="400" transform="rotate(102, 400, 400)" opacity="0.68"></line><line x1="664.5" y1="400" x2="135.5" y2="400" transform="rotate(105, 400, 400)" opacity="0.79"></line><line x1="627.5" y1="400" x2="172.5" y2="400" transform="rotate(108, 400, 400)" opacity="0.43"></line><line x1="453.5" y1="400" x2="346.5" y2="400" transform="rotate(111, 400, 400)" opacity="0.44"></line><line x1="337.5" y1="400" x2="462.5" y2="400" transform="rotate(114, 400, 400)" opacity="0.63"></line><line x1="282.5" y1="400" x2="517.5" y2="400" transform="rotate(117, 400, 400)" opacity="0.58"></line><line x1="170" y1="400" x2="630" y2="400" transform="rotate(120, 400, 400)" opacity="0.84"></line><line x1="514" y1="400" x2="286" y2="400" transform="rotate(123, 400, 400)" opacity="0.97"></line><line x1="199" y1="400" x2="601" y2="400" transform="rotate(126, 400, 400)" opacity="0.11"></line><line x1="193.5" y1="400" x2="606.5" y2="400" transform="rotate(129, 400, 400)" opacity="0.43"></line><line x1="702.5" y1="400" x2="97.5" y2="400" transform="rotate(132, 400, 400)" opacity="0.96"></line><line x1="497.5" y1="400" x2="302.5" y2="400" transform="rotate(135, 400, 400)" opacity="0.99"></line><line x1="421.5" y1="400" x2="378.5" y2="400" transform="rotate(138, 400, 400)" opacity="0.54"></line><line x1="441" y1="400" x2="359" y2="400" transform="rotate(141, 400, 400)" opacity="0.94"></line><line x1="163.5" y1="400" x2="636.5" y2="400" transform="rotate(144, 400, 400)" opacity="0.16"></line><line x1="170" y1="400" x2="630" y2="400" transform="rotate(147, 400, 400)" opacity="0.31"></line><line x1="642.5" y1="400" x2="157.5" y2="400" transform="rotate(150, 400, 400)" opacity="1.00"></line><line x1="168.5" y1="400" x2="631.5" y2="400" transform="rotate(153, 400, 400)" opacity="0.50"></line><line x1="697.5" y1="400" x2="102.5" y2="400" transform="rotate(156, 400, 400)" opacity="0.48"></line><line x1="675" y1="400" x2="125" y2="400" transform="rotate(159, 400, 400)" opacity="0.54"></line><line x1="675.5" y1="400" x2="124.5" y2="400" transform="rotate(162, 400, 400)" opacity="0.50"></line><line x1="184.5" y1="400" x2="615.5" y2="400" transform="rotate(165, 400, 400)" opacity="0.35"></line><line x1="483" y1="400" x2="317" y2="400" transform="rotate(168, 400, 400)" opacity="0.59"></line><line x1="483" y1="400" x2="317" y2="400" transform="rotate(171, 400, 400)" opacity="0.49"></line><line x1="186.5" y1="400" x2="613.5" y2="400" transform="rotate(174, 400, 400)" opacity="0.81"></line><line x1="690.5" y1="400" x2="109.5" y2="400" transform="rotate(177, 400, 400)" opacity="0.88"></line><line x1="470.5" y1="400" x2="329.5" y2="400" transform="rotate(180, 400, 400)" opacity="0.35"></line><line x1="574" y1="400" x2="226" y2="400" transform="rotate(183, 400, 400)" opacity="0.10"></line><line x1="557" y1="400" x2="243" y2="400" transform="rotate(186, 400, 400)" opacity="0.73"></line><line x1="649" y1="400" x2="151" y2="400" transform="rotate(189, 400, 400)" opacity="0.36"></line><line x1="732.5" y1="400" x2="67.5" y2="400" transform="rotate(192, 400, 400)" opacity="0.23"></line><line x1="201" y1="400" x2="599" y2="400" transform="rotate(195, 400, 400)" opacity="0.25"></line><line x1="444.5" y1="400" x2="355.5" y2="400" transform="rotate(198, 400, 400)" opacity="0.94"></line><line x1="715.5" y1="400" x2="84.5" y2="400" transform="rotate(201, 400, 400)" opacity="0.75"></line><line x1="248" y1="400" x2="552" y2="400" transform="rotate(204, 400, 400)" opacity="0.38"></line><line x1="475" y1="400" x2="325" y2="400" transform="rotate(207, 400, 400)" opacity="0.86"></line><line x1="711" y1="400" x2="89" y2="400" transform="rotate(210, 400, 400)" opacity="0.41"></line><line x1="182.5" y1="400" x2="617.5" y2="400" transform="rotate(213, 400, 400)" opacity="0.19"></line><line x1="329" y1="400" x2="471" y2="400" transform="rotate(216, 400, 400)" opacity="0.74"></line><line x1="416.5" y1="400" x2="383.5" y2="400" transform="rotate(219, 400, 400)" opacity="0.97"></line><line x1="689.5" y1="400" x2="110.5" y2="400" transform="rotate(222, 400, 400)" opacity="0.18"></line><line x1="495.5" y1="400" x2="304.5" y2="400" transform="rotate(225, 400, 400)" opacity="0.76"></line><line x1="670.5" y1="400" x2="129.5" y2="400" transform="rotate(228, 400, 400)" opacity="0.58"></line><line x1="334.5" y1="400" x2="465.5" y2="400" transform="rotate(231, 400, 400)" opacity="0.12"></line><line x1="410.5" y1="400" x2="389.5" y2="400" transform="rotate(234, 400, 400)" opacity="0.55"></line><line x1="397.5" y1="400" x2="402.5" y2="400" transform="rotate(237, 400, 400)" opacity="0.56"></line><line x1="487" y1="400" x2="313" y2="400" transform="rotate(240, 400, 400)" opacity="0.36"></line><line x1="552.5" y1="400" x2="247.5" y2="400" transform="rotate(243, 400, 400)" opacity="0.49"></line><line x1="560" y1="400" x2="240" y2="400" transform="rotate(246, 400, 400)" opacity="0.89"></line><line x1="245" y1="400" x2="555" y2="400" transform="rotate(249, 400, 400)" opacity="0.24"></line><line x1="372.5" y1="400" x2="427.5" y2="400" transform="rotate(252, 400, 400)" opacity="0.11"></line><line x1="250" y1="400" x2="550" y2="400" transform="rotate(255, 400, 400)" opacity="0.20"></line><line x1="224" y1="400" x2="576" y2="400" transform="rotate(258, 400, 400)" opacity="0.48"></line><line x1="513" y1="400" x2="287" y2="400" transform="rotate(261, 400, 400)" opacity="0.42"></line><line x1="570" y1="400" x2="230" y2="400" transform="rotate(264, 400, 400)" opacity="0.29"></line><line x1="182" y1="400" x2="618" y2="400" transform="rotate(267, 400, 400)" opacity="0.23"></line><line x1="240" y1="400" x2="560" y2="400" transform="rotate(270, 400, 400)" opacity="0.79"></line><line x1="422.5" y1="400" x2="377.5" y2="400" transform="rotate(273, 400, 400)" opacity="0.16"></line><line x1="280" y1="400" x2="520" y2="400" transform="rotate(276, 400, 400)" opacity="0.44"></line><line x1="336" y1="400" x2="464" y2="400" transform="rotate(279, 400, 400)" opacity="0.10"></line><line x1="281" y1="400" x2="519" y2="400" transform="rotate(282, 400, 400)" opacity="0.88"></line><line x1="247.5" y1="400" x2="552.5" y2="400" transform="rotate(285, 400, 400)" opacity="0.21"></line><line x1="519.5" y1="400" x2="280.5" y2="400" transform="rotate(288, 400, 400)" opacity="0.22"></line><line x1="248.5" y1="400" x2="551.5" y2="400" transform="rotate(291, 400, 400)" opacity="0.21"></line><line x1="245" y1="400" x2="555" y2="400" transform="rotate(294, 400, 400)" opacity="0.12"></line><line x1="362.5" y1="400" x2="437.5" y2="400" transform="rotate(297, 400, 400)" opacity="0.77"></line><line x1="498" y1="400" x2="302" y2="400" transform="rotate(300, 400, 400)" opacity="0.15"></line><line x1="515" y1="400" x2="285" y2="400" transform="rotate(303, 400, 400)" opacity="0.20"></line><line x1="555.5" y1="400" x2="244.5" y2="400" transform="rotate(306, 400, 400)" opacity="0.60"></line><line x1="297.5" y1="400" x2="502.5" y2="400" transform="rotate(309, 400, 400)" opacity="0.41"></line><line x1="657" y1="400" x2="143" y2="400" transform="rotate(312, 400, 400)" opacity="0.13"></line><line x1="614.5" y1="400" x2="185.5" y2="400" transform="rotate(315, 400, 400)" opacity="0.62"></line><line x1="472" y1="400" x2="328" y2="400" transform="rotate(318, 400, 400)" opacity="0.84"></line><line x1="399.5" y1="400" x2="400.5" y2="400" transform="rotate(321, 400, 400)" opacity="0.08"></line><line x1="718" y1="400" x2="82" y2="400" transform="rotate(324, 400, 400)" opacity="0.37"></line><line x1="723" y1="400" x2="77" y2="400" transform="rotate(327, 400, 400)" opacity="0.19"></line><line x1="668" y1="400" x2="132" y2="400" transform="rotate(330, 400, 400)" opacity="0.82"></line><line x1="629" y1="400" x2="171" y2="400" transform="rotate(333, 400, 400)" opacity="0.48"></line><line x1="712.5" y1="400" x2="87.5" y2="400" transform="rotate(336, 400, 400)" opacity="0.42"></line><line x1="167" y1="400" x2="633" y2="400" transform="rotate(339, 400, 400)" opacity="0.68"></line><line x1="596.5" y1="400" x2="203.5" y2="400" transform="rotate(342, 400, 400)" opacity="0.58"></line><line x1="170.5" y1="400" x2="629.5" y2="400" transform="rotate(345, 400, 400)" opacity="0.39"></line><line x1="502.5" y1="400" x2="297.5" y2="400" transform="rotate(348, 400, 400)" opacity="0.58"></line></g>
 </svg>
