<svg xmlns="http://www.w3.org/2000/svg" version="1.1" class="fixed random2" id="animated-svg" viewBox="0 0 800 800"><defs><linearGradient x1="50%" y1="0%" x2="50%" y2="100%" id="vvvortex-grad"><stop stop-color="#e1ff00" stop-opacity="1" offset="0%"></stop><stop stop-color="hsl(127, 100%, 50%)" stop-opacity="1" offset="100%"></stop></linearGradient></defs><g stroke="url(#vvvortex-grad)" fill="none" stroke-linecap="round"><circle r="363" cx="400" cy="400" stroke-width="11" stroke-dasharray="17 51" stroke-dashoffset="25" transform="rotate(214, 400, 400)" opacity="0.05"></circle><circle r="346.5" cx="400" cy="400" stroke-width="11" stroke-dasharray="19 26" stroke-dashoffset="25" transform="rotate(46, 400, 400)" opacity="0.10"></circle><circle r="330" cx="400" cy="400" stroke-width="10" stroke-dasharray="22 42" stroke-dashoffset="25" transform="rotate(202, 400, 400)" opacity="0.14"></circle><circle r="313.5" cx="400" cy="400" stroke-width="10" stroke-dasharray="39 41" stroke-dashoffset="25" transform="rotate(205, 400, 400)" opacity="0.19"></circle><circle r="297" cx="400" cy="400" stroke-width="10" stroke-dasharray="28 22" stroke-dashoffset="25" transform="rotate(290, 400, 400)" opacity="0.23"></circle><circle r="280.5" cx="400" cy="400" stroke-width="10" stroke-dasharray="12 43" stroke-dashoffset="25" transform="rotate(145, 400, 400)" opacity="0.28"></circle><circle r="264" cx="400" cy="400" stroke-width="9" stroke-dasharray="50 30" stroke-dashoffset="25" transform="rotate(43, 400, 400)" opacity="0.32"></circle><circle r="247.5" cx="400" cy="400" stroke-width="9" stroke-dasharray="23 44" stroke-dashoffset="25" transform="rotate(120, 400, 400)" opacity="0.37"></circle><circle r="231" cx="400" cy="400" stroke-width="9" stroke-dasharray="15 52" stroke-dashoffset="25" transform="rotate(24, 400, 400)" opacity="0.41"></circle><circle r="214.5" cx="400" cy="400" stroke-width="8" stroke-dasharray="24 36" stroke-dashoffset="25" transform="rotate(241, 400, 400)" opacity="0.46"></circle><circle r="198" cx="400" cy="400" stroke-width="8" stroke-dasharray="23 42" stroke-dashoffset="25" transform="rotate(258, 400, 400)" opacity="0.50"></circle><circle r="181.5" cx="400" cy="400" stroke-width="8" stroke-dasharray="17 38" stroke-dashoffset="25" transform="rotate(33, 400, 400)" opacity="0.55"></circle><circle r="165" cx="400" cy="400" stroke-width="8" stroke-dasharray="44 21" stroke-dashoffset="25" transform="rotate(249, 400, 400)" opacity="0.59"></circle><circle r="148.5" cx="400" cy="400" stroke-width="7" stroke-dasharray="36 23" stroke-dashoffset="25" transform="rotate(278, 400, 400)" opacity="0.64"></circle><circle r="132" cx="400" cy="400" stroke-width="7" stroke-dasharray="24 53" stroke-dashoffset="25" transform="rotate(206, 400, 400)" opacity="0.68"></circle><circle r="115.5" cx="400" cy="400" stroke-width="7" stroke-dasharray="35 41" stroke-dashoffset="25" transform="rotate(329, 400, 400)" opacity="0.73"></circle><circle r="99" cx="400" cy="400" stroke-width="6" stroke-dasharray="44 51" stroke-dashoffset="25" transform="rotate(106, 400, 400)" opacity="0.77"></circle><circle r="82.5" cx="400" cy="400" stroke-width="6" stroke-dasharray="53 40" stroke-dashoffset="25" transform="rotate(81, 400, 400)" opacity="0.82"></circle><circle r="66" cx="400" cy="400" stroke-width="6" stroke-dasharray="42 16" stroke-dashoffset="25" transform="rotate(40, 400, 400)" opacity="0.86"></circle><circle r="49.5" cx="400" cy="400" stroke-width="6" stroke-dasharray="28 21" stroke-dashoffset="25" transform="rotate(294, 400, 400)" opacity="0.91"></circle><circle r="33" cx="400" cy="400" stroke-width="5" stroke-dasharray="12 54" stroke-dashoffset="25" transform="rotate(43, 400, 400)" opacity="0.95"></circle><circle r="16.5" cx="400" cy="400" stroke-width="5" stroke-dasharray="25 40" stroke-dashoffset="25" transform="rotate(87, 400, 400)" opacity="1.00"></circle></g></svg>